<svg enable-background="new 0 0 224 224" viewBox="0 0 224 224" xmlns="http://www.w3.org/2000/svg"><path d="m200 122c-11.869 0-21.725 8.668-23.639 20h-16.361c-13.234 0-24 10.76-24 23.986v44.014h8v-44.014c0-8.814 7.178-15.986 16-15.986h16.361c1.913 11.332 11.77 20 23.639 20 13.234 0 24-10.766 24-24s-10.766-24-24-24zm0 40c-8.822 0-16-7.178-16-16s7.178-16 16-16 16 7.178 16 16-7.178 16-16 16z"/><path d="m92 62h-16c0-13.234-10.766-24-24-24s-24 10.766-24 24 10.766 24 24 24c10.426 0 19.295-6.693 22.6-16h17.4c8.822 0 16 7.188 16 16.024v123.976h8v-123.976c0-13.247-10.766-24.024-24-24.024zm-40 16c-8.822 0-16-7.178-16-16s7.178-16 16-16 16 7.178 16 16-7.178 16-16 16z"/><path d="m64 122h-16.361c-1.914-11.332-11.77-20-23.639-20-13.234 0-24 10.766-24 24s10.766 24 24 24c11.869 0 21.725-8.668 23.639-20h16.361c8.822 0 16 7.184 16 16.014v63.986h8v-63.986c0-13.24-10.766-24.014-24-24.014zm-40 20c-8.822 0-16-7.178-16-16s7.178-16 16-16 16 7.178 16 16-7.178 16-16 16z"/><path d="m163.461 94h12.9c1.913 11.332 11.77 20 23.639 20 13.234 0 24-10.766 24-24s-10.766-24-24-24c-11.869 0-21.725 8.668-23.639 20h-12.9c-6.297 0-11.42-5.125-11.42-11.426v-60.574h-8v60.574c0 10.711 8.711 19.426 19.42 19.426zm36.539-20c8.822 0 16 7.178 16 16s-7.178 16-16 16-16-7.178-16-16 7.178-16 16-16z"/></svg>